<svg width="866" height="27" viewBox="0 0 866 27" fill="none" xmlns="http://www.w3.org/2000/svg">
<line x1="0.593506" y1="2.86274" x2="13.055" y2="2.86274" stroke="#EAFF47" stroke-width="2.4"/>
<line x1="0.593506" y1="7.42018" x2="13.055" y2="7.42018" stroke="#EAFF47" stroke-width="2.4"/>
<line x1="0.593506" y1="11.9766" x2="13.055" y2="11.9766" stroke="#EAFF47" stroke-width="2.4"/>
<line x1="0.593506" y1="16.5341" x2="13.055" y2="16.5341" stroke="#EAFF47" stroke-width="2.4"/>
<line x1="0.593506" y1="21.091" x2="13.055" y2="21.091" stroke="#EAFF47" stroke-width="2.4"/>
<line x1="0.593506" y1="25.6482" x2="13.055" y2="25.6482" stroke="#EAFF47" stroke-width="2.4"/>
<line x1="42.7911" y1="2.86274" x2="348.725" y2="2.86274" stroke="#EAFF47" stroke-width="2.4"/>
<line x1="42.7911" y1="7.41969" x2="348.725" y2="7.41969" stroke="#EAFF47" stroke-width="2.4"/>
<line x1="42.7911" y1="11.9771" x2="348.725" y2="11.9771" stroke="#EAFF47" stroke-width="2.4"/>
<line x1="42.7911" y1="16.5341" x2="348.725" y2="16.5341" stroke="#EAFF47" stroke-width="2.4"/>
<line x1="42.7911" y1="21.0913" x2="348.725" y2="21.0913" stroke="#EAFF47" stroke-width="2.4"/>
<line x1="42.7911" y1="25.6482" x2="348.725" y2="25.6482" stroke="#EAFF47" stroke-width="2.4"/>
<line x1="513.56" y1="2.86274" x2="865.648" y2="2.86274" stroke="#EAFF47" stroke-width="2.4"/>
<line x1="513.56" y1="7.41969" x2="865.648" y2="7.41969" stroke="#EAFF47" stroke-width="2.4"/>
<line x1="513.56" y1="11.9771" x2="865.648" y2="11.9771" stroke="#EAFF47" stroke-width="2.4"/>
<line x1="513.56" y1="16.5341" x2="865.648" y2="16.5341" stroke="#EAFF47" stroke-width="2.4"/>
<line x1="513.56" y1="21.0913" x2="865.648" y2="21.0913" stroke="#EAFF47" stroke-width="2.4"/>
<line x1="513.56" y1="25.6482" x2="865.648" y2="25.6482" stroke="#EAFF47" stroke-width="2.4"/>
<rect x="16.5989" y="1.54199" width="22.0549" height="23.8063" stroke="#EAFF47" stroke-width="3"/>
</svg>
